<svg xmlns="http://www.w3.org/2000/svg" version="1.1" xmlns:xlink="http://www.w3.org/1999/xlink" xmlns:svgjs="http://svgjs.dev/svgjs" width="2000" height="1338" viewBox="0 0 2000 1338"><g transform="matrix(1,0,0,1,0.43289630145807223,0.5417004048582612)"><svg viewBox="0 0 369 247" data-background-color="#ffffff" preserveAspectRatio="xMidYMid meet" height="1338" width="2000" xmlns="http://www.w3.org/2000/svg" xmlns:xlink="http://www.w3.org/1999/xlink"><defs></defs><g id="tight-bounds" transform="matrix(1,0,0,1,-0.0798693676190112,-0.09999999999999432)"><svg viewBox="0 0 369.159738735238 247.2" height="247.2" width="369.159738735238"><g><svg viewBox="0 0 395.52000000000004 264.8515906284207" height="247.2" width="369.159738735238"><g transform="matrix(1,0,0,1,0,163.68890832721146)"><svg viewBox="0 0 395.52000000000004 101.16268230120924" height="101.16268230120924" width="395.52000000000004"><g><svg viewBox="0 0 395.52000000000004 101.16268230120924" height="101.16268230120924" width="395.52000000000004"><g><svg viewBox="0 0 395.52000000000004 101.16268230120924" height="101.16268230120924" width="395.52000000000004"><g transform="matrix(1,0,0,1,0,0)"><svg width="395.52000000000004" viewBox="-0.5 -34.70000076293945 136.44000244140625 34.900001525878906" height="101.16268230120924" data-palette-color="#0023ff"><path d="M22.05-34.5L33.2-34.5 21.55-10.25 11.15-10.25-0.5-34.5 10.65-34.5 15-23.65Q15.45-22.55 15.65-21.25 15.85-19.95 16.05-18.8L16.05-18.8 16.7-18.8Q16.9-19.95 17.13-21.28 17.35-22.6 17.75-23.7L17.75-23.7 22.05-34.5ZM10.95-16.4L21.8-16.4 21.8 0 10.95 0 10.95-16.4ZM35.2-34.5L46.05-34.5 46.05-10.4Q46.05-9.6 46.62-9.1 47.2-8.6 48.15-8.6L48.15-8.6 59.75-8.6 60.25-0.5Q56.4 0 52.02 0.1 47.65 0.2 43.4 0.2L43.4 0.2Q39.65 0.2 37.42-1.98 35.2-4.15 35.2-7.65L35.2-7.65 35.2-34.5ZM71-34.7L71-34.7Q74-34.7 77.17-34.68 80.35-34.65 83.4-34.52 86.45-34.4 88.95-34.05L88.95-34.05 88.45-26.4 75.8-26.4Q74.85-26.4 74.3-25.9 73.75-25.4 73.75-24.6L73.75-24.6 73.75-9.9Q73.75-9.1 74.3-8.6 74.85-8.1 75.8-8.1L75.8-8.1 88.45-8.1 88.95-0.45Q86.45-0.15 83.4 0 80.35 0.15 77.17 0.18 74 0.2 71 0.2L71 0.2Q67.45 0.2 65.17-1.98 62.9-4.15 62.9-7.65L62.9-7.65 62.9-26.85Q62.9-30.35 65.17-32.52 67.45-34.7 71-34.7ZM63.8-14.05L63.8-21.25 86.65-21.25 86.65-14.05 63.8-14.05ZM121.39-34.5L130.94-34.5Q134.59-34.5 134.74-30.75L134.74-30.75 135.94 0 126.19 0 125.14-26.4 124.39-26.4 120.99-8.8Q120.49-5.5 116.89-5.5L116.89-5.5 111.29-5.5Q107.74-5.5 107.14-8.8L107.14-8.8 103.69-26.4 102.94-26.4 102.09 0 92.34 0 93.54-30.75Q93.69-34.5 97.34-34.5L97.34-34.5 106.69-34.5Q110.19-34.5 110.79-31.15L110.79-31.15 113.29-17.45Q113.49-16.2 113.62-14.9 113.74-13.6 113.84-12.3L113.84-12.3 114.29-12.3Q114.44-13.6 114.57-14.9 114.69-16.2 114.89-17.45L114.89-17.45 117.24-31.15Q117.84-34.5 121.39-34.5L121.39-34.5Z" opacity="1" transform="matrix(1,0,0,1,0,0)" fill="#0023ff" class="undefined-text-0" data-fill-palette-color="primary" id="text-0"></path></svg></g></svg></g></svg></g></svg></g><g transform="matrix(1,0,0,1,135.66995725150957,0)"><svg viewBox="0 0 124.18008549698088 139.80682694027118" height="139.80682694027118" width="124.18008549698088"><g><svg xmlns="http://www.w3.org/2000/svg" xmlns:xlink="http://www.w3.org/1999/xlink" version="1.1" x="8" y="0" viewBox="12.982999801635742 1 75.68599700927734 97.81300354003906" enable-background="new 0 0 100 100" xml:space="preserve" height="139.80682694027118" width="108.18008549698088" class="icon-icon-0" data-fill-palette-color="accent" id="icon-0"><g fill="#0023ff" data-fill-palette-color="accent"><polygon fill-rule="evenodd" clip-rule="evenodd" points="12.983,10.59 30.001,98.813 24.129,39.764 53.15,37.872 53.096,27.989    64.549,1 53.622,18.977  " fill="#0023ff" data-fill-palette-color="accent"></polygon><polygon fill-rule="evenodd" clip-rule="evenodd" points="59.389,54.548 64.549,1.007 55.809,40.723 36.197,41.768 37.767,62.23    30.001,98.813 42.058,58.914  " fill="#0023ff" data-fill-palette-color="accent"></polygon><polygon fill-rule="evenodd" clip-rule="evenodd" points="62.8,67.182 63.349,56.729 47.37,60.484 47.338,72.281 30.001,98.813    51.681,71.197  " fill="#0023ff" data-fill-palette-color="accent"></polygon><polygon fill-rule="evenodd" clip-rule="evenodd" points="65.711,62.394 80.552,57.663 82.061,45.131 66.162,47.226  " fill="#0023ff" data-fill-palette-color="accent"></polygon><polygon fill-rule="evenodd" clip-rule="evenodd" points="72.07,44.502 83.058,43.085 84.639,32.807 76.56,32.434 64.549,1    72.979,31.967  " fill="#0023ff" data-fill-palette-color="accent"></polygon><polygon fill-rule="evenodd" clip-rule="evenodd" points="87.413,31.294 88.669,21.788 79.125,19.094 64.549,1 79.032,23.437    78.61,30.437  " fill="#0023ff" data-fill-palette-color="accent"></polygon></g></svg></g></svg></g><g><rect width="122.48982661912856" height="9.122955089811185" y="129.68387185045998" x="259.85004274849047" fill="#0023ff" data-fill-palette-color="accent"></rect><rect width="122.48982661912856" height="9.122955089811185" y="129.68387185045998" x="13.180130632381008" fill="#0023ff" data-fill-palette-color="accent"></rect><rect width="122.48982661912856" height="9.122955089811185" y="111.43796167083762" x="259.85004274849047" fill="#0023ff" data-fill-palette-color="accent"></rect><rect width="122.48982661912856" height="9.122955089811185" y="111.43796167083762" x="13.180130632381008" fill="#0023ff" data-fill-palette-color="accent"></rect></g></svg></g></svg><rect width="369.159738735238" height="247.2" fill="none" stroke="none" visibility="hidden"></rect></g></svg></g></svg>